<?xml version="1.0" encoding="UTF-8"?>
<!DOCTYPE svg PUBLIC "-//W3C//DTD SVG 1.1//EN" "http://www.w3.org/Graphics/SVG/1.1/DTD/svg11.dtd">
<!-- Creator: CorelDRAW -->
<svg xmlns="http://www.w3.org/2000/svg" xml:space="preserve" width="58.0994mm" height="58.0268mm" version="1.1" style="shape-rendering:geometricPrecision; text-rendering:geometricPrecision; image-rendering:optimizeQuality; fill-rule:evenodd; clip-rule:evenodd"
viewBox="0 0 206.35 206.09"
 xmlns:xlink="http://www.w3.org/1999/xlink"
 xmlns:xodm="http://www.corel.com/coreldraw/odm/2003">
 <defs>
  <style type="text/css">
   <![CDATA[
    .fil0 {fill:white}
   ]]>
  </style>
 </defs>
 <g id="Layer_x0020_1">
  <metadata id="CorelCorpID_0Corel-Layer"/>
  <path class="fil0" d="M-0 49.06l0 156.15c0,0.67 0.64,0.88 1.31,0.88l61.1 0c0.6,0 1.02,-0.08 1.31,-0.26l0 -192.65 1.16 0c0.1,-0.11 0.22,-0.25 0.37,-0.48 1,0 0.99,0.2 1.73,0.18 1.9,-0.06 2.97,-0.23 3.55,0.3l1.31 0 0 145.8c0.81,1.2 2.1,2.05 2.95,3.18l12.49 15.11c0.4,0.43 0.47,0.61 0.9,1.07l15.04 18.25c1.11,1.43 2.45,2.48 3.5,3.95l0.69 0.84c1.18,1.28 3.12,4.72 4.91,4.72l52.34 0c1.73,0 3.85,-3.35 4.99,-4.65l1.81 -2.14c1.59,-1.62 2.92,-3.53 4.34,-5.29 0.34,-0.42 0.6,-0.61 0.94,-1.03 0.4,-0.49 0.43,-0.58 0.9,-1.07 2.21,-2.32 3.89,-5.13 6.18,-7.4 0.93,-0.92 1.71,-2.31 2.59,-3.33l15.02 -17.83c1.2,-1.49 3.58,-3.96 4.38,-5.47 0.44,-0.83 0.25,-2.51 0.25,-3.69l0 -139.95c0,-2.64 0.02,-5.13 0.21,-7.46 0.08,-0.93 0.07,-2.98 0,-3.92 -0.06,-0.78 0.06,-2.86 -1.08,-2.86l-61.76 0c-0.32,0 -0.57,0.05 -0.78,0.15l0 194.13 -8.01 0 0 -147.01c-0.15,-0.21 -0.34,-0.44 -0.57,-0.69l-8.44 -9.96c-0.57,-0.63 -0.82,-1.03 -1.35,-1.72 -3.17,-4.07 -6.73,-7.74 -9.95,-11.73l-8.11 -9.63c-0.03,-0.03 -0.08,-0.07 -0.11,-0.11l-5.86 -7.06c-0.94,-1.17 -1.91,-2.16 -2.81,-3.32 -0.44,-0.57 -0.87,-1.07 -1.38,-1.69 -0.53,-0.65 -0.93,-1.38 -1.9,-1.38l-53 0c-1.77,0 -2.45,2.25 -3.49,3.3l-13.63 16.15c-2.75,3.78 -7.52,8.7 -10.25,12.31l-5.07 6.1c-0.47,0.58 -0.86,1.02 -1.28,1.56 -1.14,1.47 -7.44,8.08 -7.44,9.64z"/>
 </g>
</svg>
